<svg width="102" height="33" viewBox="0 0 102 33" fill="none" xmlns="http://www.w3.org/2000/svg">
<path d="M17.0856 27.0267C17.0856 25.7486 17.4755 24.8262 18.6192 24.8262C19.7629 24.8262 19.8538 25.7617 19.8538 26.7236V30.7952H21.4004V27.0267C21.4004 25.7486 21.7903 24.8262 22.934 24.8262C24.0776 24.8262 24.1686 25.7617 24.1686 26.7236V30.7952H25.7152V26.3415C25.7152 24.6549 25.0913 23.5481 23.4278 23.5481C22.5571 23.5481 21.7643 23.9038 21.1535 24.7998C20.8286 24.0093 20.2047 23.5481 19.113 23.5481C18.1773 23.5481 17.4885 23.9565 17.0856 24.6944V23.7062H15.5391V30.7952H17.0856V27.0267Z" fill="white"/>
<path d="M31.6574 28.0017C31.6574 29.214 30.9816 29.7937 29.8379 29.7937C29.0582 29.7937 28.5513 29.4248 28.5513 28.8055C28.5513 28.0017 29.448 27.6723 31.6574 27.4615V28.0017ZM29.5 30.9665C30.5397 30.9665 31.3455 30.6107 31.8004 29.8333C31.8394 30.3208 31.8784 30.4921 31.9303 30.7952H33.3469C33.204 30.2022 33.139 29.2667 33.139 28.3707C33.139 27.725 33.165 26.8817 33.165 26.5391C33.204 24.2728 31.8914 23.4954 30.2148 23.4954C28.5253 23.4954 27.3426 24.4968 27.2387 25.933H28.7592C28.7982 25.0766 29.3831 24.6549 30.1628 24.6549C30.9426 24.6549 31.6184 25.0238 31.6184 26.2361V26.3678C29.0712 26.6446 26.9138 27.0662 26.9138 28.845C26.9138 30.1363 27.9795 30.9665 29.5 30.9665Z" fill="white"/>
<path d="M36.2755 23.7062H34.7289V30.7952H36.2755V27.0267C36.2755 25.7486 36.7043 24.8262 37.9 24.8262C39.0957 24.8262 39.2256 25.7617 39.2256 26.7236V30.7952H40.7722V26.3415C40.7722 24.6549 40.0834 23.5481 38.3939 23.5481C37.4061 23.5481 36.6784 23.9565 36.2755 24.6944V23.7062Z" fill="white"/>
<path d="M46.7098 28.0017C46.7098 29.214 46.034 29.7937 44.8903 29.7937C44.1105 29.7937 43.6037 29.4248 43.6037 28.8055C43.6037 28.0017 44.5004 27.6723 46.7098 27.4615V28.0017ZM44.5524 30.9665C45.5921 30.9665 46.3979 30.6107 46.8527 29.8333C46.8917 30.3208 46.9307 30.4921 46.9827 30.7952H48.3993C48.2563 30.2022 48.1913 29.2667 48.1913 28.3707C48.1913 27.725 48.2173 26.8817 48.2173 26.5391C48.2563 24.2728 46.9437 23.4954 45.2672 23.4954C43.5777 23.4954 42.395 24.4968 42.291 25.933H43.8116C43.8506 25.0766 44.4354 24.6549 45.2152 24.6549C45.995 24.6549 46.6708 25.0238 46.6708 26.2361V26.3678C44.1235 26.6446 41.9661 27.0662 41.9661 28.845C41.9661 30.1363 43.0318 30.9665 44.5524 30.9665Z" fill="white"/>
<path d="M50.0527 23.7062H49.0779V24.8394H50.0527V30.7952H51.5992V24.8394H52.9768V23.7062H51.5992V23.3241C51.5992 22.5862 51.7682 22.4413 52.535 22.4413H52.9768V21.2422H52.366C50.6635 21.2422 50.0527 21.6243 50.0527 23.2714V23.7062Z" fill="white"/>
<path d="M58.0435 28.0017C58.0435 29.214 57.3676 29.7937 56.224 29.7937C55.4442 29.7937 54.9373 29.4248 54.9373 28.8055C54.9373 28.0017 55.8341 27.6723 58.0435 27.4615V28.0017ZM55.8861 30.9665C56.9258 30.9665 57.7315 30.6107 58.1864 29.8333C58.2254 30.3208 58.2644 30.4921 58.3164 30.7952H59.733C59.59 30.2022 59.525 29.2667 59.525 28.3707C59.525 27.725 59.551 26.8817 59.551 26.5391C59.59 24.2728 58.2774 23.4954 56.6009 23.4954C54.9114 23.4954 53.7287 24.4968 53.6247 25.933H55.1453C55.1843 25.0766 55.7691 24.6549 56.5489 24.6549C57.3287 24.6549 58.0045 25.0238 58.0045 26.2361V26.3678C55.4572 26.6446 53.2998 27.0662 53.2998 28.845C53.2998 30.1363 54.3655 30.9665 55.8861 30.9665Z" fill="white"/>
<path fill-rule="evenodd" clip-rule="evenodd" d="M91.0464 2.38236H78.9784C74.8769 2.38236 71.5519 5.7534 71.5519 9.91179C71.5519 14.0702 74.8769 17.4412 78.9784 17.4412H91.0464C95.1479 17.4412 98.937 14.0702 98.937 9.91179C98.937 5.7534 95.1479 2.38236 91.0464 2.38236ZM78.9784 0.5C73.8515 0.5 69.6953 4.7138 69.6953 9.91179C69.6953 15.1098 73.8515 19.3236 78.9784 19.3236H91.0464C96.1733 19.3236 100.329 15.1098 100.329 9.91179C100.329 4.7138 96.1733 0.5 91.0464 0.5H78.9784Z" fill="white"/>
<path fill-rule="evenodd" clip-rule="evenodd" d="M83.6222 9.91147L83.6222 22.1468C83.6222 26.3052 86.9472 29.6762 91.0487 29.6762C95.1502 29.6762 98.4752 26.3052 98.4752 22.1468L98.4752 15.5585L98.9393 9.91147C98.9393 5.75308 95.1502 2.38204 91.0487 2.38204C86.9472 2.38204 83.6222 5.75308 83.6222 9.91147ZM81.7656 22.1468C81.7656 27.3448 85.9218 31.5586 91.0487 31.5586C96.1756 31.5586 100.332 27.3448 100.332 22.1468L100.332 9.91147C100.332 4.71348 96.1756 1.44086 91.0487 1.44086C85.9218 1.44086 81.7656 4.71348 81.7656 9.91147L81.7656 22.1468Z" fill="white"/>
<path fill-rule="evenodd" clip-rule="evenodd" d="M86.1056 4.72146L77.5723 13.3732C74.672 16.3136 74.672 21.081 77.5723 24.0214C80.4725 26.9618 85.1746 26.9618 88.0749 24.0214L96.6082 15.3697C99.5084 12.4293 99.5084 7.66189 96.6082 4.72146C93.708 1.78104 89.0058 1.78104 86.1056 4.72146ZM76.2594 12.0421C72.6342 15.7177 72.6342 21.6769 76.2594 25.3524C79.8847 29.0279 85.7624 29.0279 89.3877 25.3524L97.921 16.7007C101.546 13.0252 101.546 7.06597 97.921 3.39043C94.2958 -0.285099 88.4181 -0.285097 84.7928 3.39044L76.2594 12.0421Z" fill="white"/>
<path d="M9.81666 23.6983L10.264 26.3603C9.5577 26.5082 8.88283 26.6232 8.23935 26.7054C7.61157 26.804 6.99948 26.8532 6.40308 26.8532C5.13182 26.8532 4.0175 26.6396 3.06013 26.2124C2.11846 25.7852 1.38081 25.1608 0.847195 24.3392C0.329273 23.534 0.0703125 22.5728 0.0703125 21.4554C0.0703125 20.453 0.274342 19.5657 0.682402 18.7934C1.09046 18.0047 1.67116 17.3556 2.4245 16.8463C3.17784 16.3369 4.04889 15.9918 5.03765 15.8111L5.29661 15.6139C5.75176 15.4495 6.22259 15.2359 6.70913 14.973C7.19566 14.6937 7.65865 14.365 8.0981 13.9871C8.55324 13.6092 8.95345 13.1984 9.29874 12.7547C9.64402 12.2946 9.91867 11.8099 10.1227 11.3005C10.3424 10.7911 10.4523 10.2653 10.4523 9.72305V8.1456L11.959 10.7583C11.1429 10.2982 10.3032 9.9531 9.43999 9.72305C8.59248 9.49301 7.79205 9.37798 7.03871 9.37798C6.26968 9.37798 5.46141 9.49301 4.6139 9.72305C3.76639 9.9531 2.93458 10.2982 2.11846 10.7583L3.62514 8.1456V9.72305C3.62514 10.2324 3.735 10.7747 3.95473 11.3498C4.19014 11.9249 4.50404 12.4918 4.8964 13.0505C5.28877 13.5928 5.75176 14.0939 6.28537 14.554C6.81899 14.9977 7.39969 15.3592 8.02747 15.6385C8.65526 15.9014 9.29874 16.0329 9.95791 16.0329H14.7134V18.892H10.9702C9.74603 18.892 8.60033 18.6866 7.53309 18.2758C6.46586 17.865 5.50064 17.3228 4.63744 16.6491C3.77424 15.9589 3.02874 15.2113 2.40096 14.4061C1.78887 13.5845 1.31803 12.7712 0.988446 11.966C0.65886 11.1444 0.494067 10.3968 0.494067 9.72305V8.31813C1.16893 7.92377 1.88304 7.59513 2.63638 7.33222C3.40541 7.06931 4.1666 6.87213 4.91994 6.74067C5.67328 6.59279 6.37954 6.51884 7.03871 6.51884C7.69789 6.51884 8.40414 6.59279 9.15748 6.74067C9.91083 6.87213 10.6642 7.06931 11.4175 7.33222C12.1865 7.59513 12.9085 7.92377 13.5834 8.31813V9.72305C13.5834 10.5611 13.4107 11.3745 13.0654 12.1632C12.7202 12.9355 12.2493 13.6585 11.6529 14.3322C11.0722 15.0059 10.4131 15.6139 9.67541 16.1561C8.93776 16.6984 8.17657 17.1502 7.39184 17.5117C7.26629 17.5775 7.0858 17.6678 6.85038 17.7829C6.61496 17.8815 6.36385 17.9883 6.09704 18.1033C5.84592 18.2019 5.6262 18.2923 5.43786 18.3744C5.24953 18.4401 5.13182 18.4894 5.08474 18.5223C4.6139 18.7524 4.1823 19.0892 3.78993 19.5329C3.41326 19.993 3.22493 20.642 3.22493 21.48C3.22493 22.3016 3.48389 22.926 4.00181 23.3533C4.53543 23.7969 5.33585 24.0188 6.40308 24.0188C6.77975 24.0188 7.24274 23.9859 7.79205 23.9202C8.35706 23.8709 9.03193 23.7969 9.81666 23.6983ZM14.7134 18.892V16.0329C14.9017 16.0329 15.0273 16.1643 15.09 16.4272C15.1528 16.6737 15.1842 17.0188 15.1842 17.4625C15.1842 17.8897 15.1528 18.2347 15.09 18.4977C15.0273 18.7606 14.9017 18.892 14.7134 18.892Z" fill="white"/>
<path d="M14.7159 18.892V16.0329H25.71L24.7448 16.8956V8.6632L25.5452 9.37798H22.5789C21.8884 9.37798 21.3469 9.46836 20.9545 9.64911C20.5622 9.82986 20.2875 10.1667 20.1306 10.6597C19.9736 11.1362 19.8952 11.8181 19.8952 12.7054C19.8952 13.6749 19.9736 14.3979 20.1306 14.8744C20.2875 15.3345 20.5622 15.6467 20.9545 15.8111C21.3469 15.9589 21.8884 16.0329 22.5789 16.0329V18.5962C21.2449 18.5962 20.1463 18.3991 19.2831 18.0047C18.4199 17.6103 17.7764 16.9859 17.3526 16.1315C16.9446 15.2606 16.7405 14.1186 16.7405 12.7054C16.7405 11.358 16.9446 10.2242 17.3526 9.30404C17.7764 8.38386 18.4199 7.69372 19.2831 7.23363C20.1463 6.75711 21.2449 6.51884 22.5789 6.51884H27.8994V18.892H14.7159ZM14.7159 18.892C14.5276 18.892 14.4021 18.7606 14.3393 18.4977C14.2765 18.2347 14.2451 17.8897 14.2451 17.4625C14.2451 17.0188 14.2765 16.6737 14.3393 16.4272C14.4021 16.1643 14.5276 16.0329 14.7159 16.0329V18.892ZM21.3312 4.25125V1.44141H24.4858V4.25125H21.3312Z" fill="white"/>
<path d="M34.7944 18.892V16.0329H37.4782V18.892H34.7944ZM31.6634 18.892V1.46605H34.7944V18.892H31.6634ZM37.4782 18.892V16.0329C37.6665 16.0329 37.7921 16.1643 37.8549 16.4272C37.9177 16.6737 37.949 17.0188 37.949 17.4625C37.949 17.8897 37.9177 18.2347 37.8549 18.4977C37.7921 18.7606 37.6665 18.892 37.4782 18.892Z" fill="white"/>
<path d="M43.1027 18.892V16.0329H45.5746V18.892H43.1027ZM37.4762 18.892V16.0329H41.7843L39.9481 17.635V6.51884H43.1027V18.892H37.4762ZM37.4762 18.892C37.2878 18.892 37.1623 18.7606 37.0995 18.4977C37.0367 18.2347 37.0053 17.8897 37.0053 17.4625C37.0053 17.0188 37.0367 16.6737 37.0995 16.4272C37.1623 16.1643 37.2878 16.0329 37.4762 16.0329V18.892ZM45.5746 18.892V16.0329C45.7629 16.0329 45.8885 16.1643 45.9513 16.4272C46.014 16.6737 46.0454 17.0188 46.0454 17.4625C46.0454 17.8897 46.014 18.2347 45.9513 18.4977C45.8885 18.7606 45.7629 18.892 45.5746 18.892ZM39.9481 4.25125V1.44141H43.1027V4.25125H39.9481Z" fill="white"/>
<path d="M45.5687 18.892V16.0329H57.7869L56.3509 17.3146V12.7794C56.3509 11.8921 56.2567 11.2019 56.0684 10.709C55.8801 10.1996 55.5505 9.84629 55.0796 9.64911C54.6245 9.4355 53.9889 9.32869 53.1727 9.32869C52.5293 9.32869 51.8936 9.37798 51.2658 9.47658C50.6538 9.55874 50.1751 9.67376 49.8298 9.82164L51.7838 7.89912C51.6896 8.27705 51.5954 8.75358 51.5013 9.32869C51.4228 9.9038 51.3522 10.52 51.2894 11.1773C51.2266 11.8181 51.1952 12.4507 51.1952 13.0751C51.1952 13.6503 51.2188 14.25 51.2658 14.8744C51.3286 15.4988 51.3914 16.0493 51.4542 16.5258C51.5327 17.0024 51.5954 17.331 51.6425 17.5117L48.6527 18.3744C48.5899 18.1444 48.5114 17.7664 48.4173 17.2406C48.3231 16.7148 48.2368 16.0904 48.1583 15.3674C48.0955 14.6444 48.0641 13.8803 48.0641 13.0751C48.0641 12.2536 48.1034 11.4648 48.1819 10.709C48.2603 9.93667 48.3466 9.24653 48.4408 8.63855C48.5507 8.01414 48.6527 7.51297 48.7469 7.13504C49.1235 6.98715 49.7121 6.83927 50.5125 6.69138C51.3129 6.54349 52.1997 6.46955 53.1727 6.46955C54.5852 6.46955 55.7545 6.67495 56.6805 7.08574C57.6222 7.49654 58.3206 8.16203 58.7757 9.08221C59.2465 10.0024 59.482 11.243 59.482 12.804V18.892H45.5687ZM45.5687 18.892C45.3804 18.892 45.2548 18.7606 45.192 18.4977C45.1293 18.2347 45.0979 17.8897 45.0979 17.4625C45.0979 17.0188 45.1293 16.6737 45.192 16.4272C45.2548 16.1643 45.3804 16.0329 45.5687 16.0329V18.892Z" fill="white"/>
</svg>
